# xmcd CD database file
#
# Track frame offsets:
#	150
#	19616
#	39779
#	59347
#	90546
#	332550
#
# Disc length: 4440 seconds
#
# Revision: 0
# Processed by: cddbd v1.5.1PL0 Copyright (c) Steve Scherf et al.
# Submitted via: CDex 1.51
#
DISCID=3d115606
DTITLE=TUBE - 夏祭り／涙を虹に
DYEAR=2004
DGENRE=JPop
TTITLE0=夏祭り
TTITLE1=涙を虹に
TTITLE2=夏祭り （インストゥルメンタル）
TTITLE3=涙を虹に （インストゥルメンタル）
TTITLE4=data
TTITLE5=data
EXTD=YEAR: 2004
EXTT0=
EXTT1=
EXTT2=
EXTT3=
EXTT4=
EXTT5=
PLAYORDER=
